:SAMPLES-PER-SECOND 30
:FULLY-SPECIFIED
:DEGREES
16
root  -79.6541 18.5851 -1.88639 -113.031 79.5551 -92.8648
RightUpLeg  -79.885 -7.18458 10.7495
RightLeg  85.888 11.0419 3.54712
RightFoot  -6.8919 -0.331736 6.12195
RightToes  -2.32832e-010 -1.59028e-015 9.93923e-017
Spine  63.3037 -4.06712 2.08581
Spine1  8.51116 -2.47898 2.18456
HEad  -26.9635 2.33605 7.95541
LeftShoulder1  9.93923e-017 0 1.22299e-017
LeftArm  -5.36217 -55.2594 -71.3869
LeftForeArm  -132.612 -49.9191 167.309
LeftHand  0.696582 5.84499 10.5901
RightShoulder  1.98785e-016 -4.96962e-017 1.55301e-017
RightArm  -40.5124 39.0108 64.9415
RightForeArm  45.5095 42.1065 -162.8
RightHand  0.618373 -6.65308 -3.3723
LeftUpLeg  -50.2228 -5.17819 11.9694
LeftLeg  136.352 -13.7687 -1.4608
LeftFoot  -30.9983 -1.74943 -10.6938
LeftToes  1.49248e-009 -4.82331e-011 8.60243e-011
17
root  -78.639 17.5584 -1.48332 -125.894 79.4211 -105.206
RightUpLeg  -82.618 -7.92963 9.92411
RightLeg  90.8258 10.9198 1.44501
RightFoot  -3.17612 -0.377916 4.36066
RightToes  -2.32832e-010 -1.59028e-015 9.93923e-017
Spine  63.4522 -3.7982 1.17671
Spine1  7.92541 -2.94026 3.8013
HEad  -27.9284 1.58806 8.65867
LeftShoulder1  9.93923e-017 0 1.22299e-017
LeftArm  -4.49235 -56.2432 -72.8338
LeftForeArm  -131.799 -50.0244 167.164
LeftHand  0.699195 5.835 10.1749
RightShoulder  1.98785e-016 -4.96962e-017 1.55301e-017
RightArm  -41.4822 39.1336 64.4297
RightForeArm  45.4522 41.8766 -163.051
RightHand  0.781545 -7.94266 -3.75376
LeftUpLeg  -48.7896 -6.1217 14.3993
LeftLeg  141.081 -11.0082 -3.72777
LeftFoot  -31.8084 -1.73739 -10.1295
LeftToes  1.49248e-009 -4.82331e-011 8.60243e-011
18
root  -77.6428 16.8178 -1.08656 -136.067 78.278 -114.599
RightUpLeg  -84.3786 -8.1995 9.48252
RightLeg  95.6561 11.108 -0.213108
RightFoot  -2.33359 -0.243238 2.58989
RightToes  -2.32832e-010 -1.59028e-015 9.93923e-017
Spine  64.4412 -4.07097 1.01968
Spine1  7.44604 -3.18248 4.63426
HEad  -29.5601 1.31377 9.32579
LeftShoulder1  9.93923e-017 0 1.22299e-017
LeftArm  -4.10788 -57.5039 -73.5498
LeftForeArm  -130.714 -50.0571 167.057
LeftHand  0.660514 5.65745 9.97157
RightShoulder  1.98785e-016 -4.96962e-017 1.55301e-017
RightArm  -42.218 39.6907 64.1844
RightForeArm  45.8262 41.4417 -163.559
RightHand  0.907481 -8.88388 -4.07713
LeftUpLeg  -46.3016 -8.70286 18.9697
LeftLeg  144.432 -5.87297 -7.06544
LeftFoot  -32.8929 -1.73483 -9.52514
LeftToes  1.49248e-009 -4.82331e-011 8.60243e-011
19
root  -76.559 16.3527 -0.680059 -146.418 77.9218 -126.427
RightUpLeg  -87.3657 -7.57955 7.70006
RightLeg  99.4388 11.4802 -1.60707
RightFoot  -1.76875 -0.125689 1.27541
RightToes  -2.32832e-010 -1.59028e-015 9.93923e-017
Spine  63.4361 -4.00101 -0.0188231
Spine1  7.38134 -3.77588 5.39646
HEad  -31.503 1.39255 9.46167
LeftShoulder1  9.93923e-017 0 1.22299e-017
LeftArm  -4.23436 -58.6062 -73.53
LeftForeArm  -129.794 -49.878 167.132
LeftHand  0.60184 5.40713 10.0169
RightShoulder  1.98785e-016 -4.96962e-017 1.55301e-017
RightArm  -42.4151 40.5528 64.2917
RightForeArm  46.163 40.9839 -164.078
RightHand  0.983547 -9.38498 -4.50001
LeftUpLeg  -44.9756 -11.3411 22.3264
LeftLeg  145.932 -0.347486 -10.3038
LeftFoot  -34.0248 -1.59745 -8.22456
LeftToes  1.49248e-009 -4.82331e-011 8.60243e-011
